<svg width="354" height="102" viewBox="0 0 354 102" fill="none" xmlns="http://www.w3.org/2000/svg">
<path d="M113.968 65.144C113.968 63.736 113.84 62.2 113.584 60.536C113.371 58.872 112.944 57.2933 112.304 55.8C111.707 54.264 110.811 53.048 109.616 52.152C109.189 51.8107 108.741 51.5547 108.272 51.384C107.803 51.1707 107.312 51.064 106.8 51.064C105.733 51.064 104.667 51.448 103.6 52.216C102.533 52.9413 101.723 53.752 101.168 54.648C101.125 54.7333 101.04 54.904 100.912 55.16C100.827 55.3733 100.784 55.5227 100.784 55.608V77.688C100.784 78.8827 100.976 79.8 101.36 80.44C101.744 81.0373 102.576 81.336 103.856 81.336C105.904 81.336 107.568 80.8027 108.848 79.736C110.171 78.6693 111.195 77.304 111.92 75.64C112.688 73.976 113.221 72.2053 113.52 70.328C113.819 68.4507 113.968 66.7227 113.968 65.144ZM122.672 65.208C122.672 68.792 121.947 71.928 120.496 74.616C119.088 77.304 117.083 79.3947 114.48 80.888C111.877 82.3813 108.763 83.128 105.136 83.128C103.813 83.128 102.512 83.0213 101.232 82.808C99.9947 82.552 98.7147 82.424 97.392 82.424C96.6667 82.424 95.9627 82.5093 95.28 82.68C94.5973 82.8507 93.8933 82.936 93.168 82.936C92.9547 82.936 92.72 82.8933 92.464 82.808C92.2507 82.7227 92.144 82.5307 92.144 82.232C92.144 82.1467 92.1653 82.04 92.208 81.912C92.2507 81.784 92.272 81.6773 92.272 81.592C92.4427 80.952 92.5493 80.312 92.592 79.672C92.6773 78.9893 92.72 78.328 92.72 77.688V39.48C92.72 39.0107 92.6347 38.4987 92.464 37.944C92.336 37.3893 91.9733 37.112 91.376 37.112C90.6933 37.112 90.032 37.1547 89.392 37.24C88.752 37.2827 88.0907 37.304 87.408 37.304C87.2373 37.304 87.088 37.2187 86.96 37.048C86.8747 36.8773 86.832 36.7067 86.832 36.536C86.832 36.152 87.024 35.896 87.408 35.768C87.8773 35.64 88.3467 35.5547 88.816 35.512C89.328 35.4267 89.7973 35.3627 90.224 35.32C91.4187 35.1067 92.6133 34.9147 93.808 34.744C95.0027 34.5307 96.176 34.2533 97.328 33.912C97.6693 33.8267 97.9893 33.7413 98.288 33.656C98.6293 33.528 98.9493 33.464 99.248 33.464C99.5893 33.464 99.9093 33.592 100.208 33.848C100.549 34.0613 100.72 34.36 100.72 34.744V51.32C101.915 50.5947 103.195 50.04 104.56 49.656C105.968 49.2293 107.355 49.016 108.72 49.016C111.92 49.016 114.544 49.7627 116.592 51.256C118.64 52.7067 120.155 54.6693 121.136 57.144C122.16 59.576 122.672 62.264 122.672 65.208ZM153.159 66.168C153.159 64.76 153.052 63.16 152.839 61.368C152.668 59.5333 152.284 57.7627 151.687 56.056C151.089 54.3493 150.215 52.9413 149.063 51.832C147.953 50.68 146.439 50.104 144.519 50.104C142.769 50.104 141.361 50.6587 140.295 51.768C139.228 52.8773 138.396 54.264 137.799 55.928C137.244 57.592 136.86 59.32 136.647 61.112C136.433 62.8613 136.327 64.376 136.327 65.656C136.327 67.064 136.412 68.6853 136.583 70.52C136.796 72.312 137.201 74.0613 137.799 75.768C138.396 77.4747 139.271 78.8827 140.423 79.992C141.575 81.1013 143.111 81.656 145.031 81.656C146.823 81.656 148.252 81.1227 149.319 80.056C150.428 78.9467 151.26 77.5813 151.815 75.96C152.369 74.296 152.732 72.5893 152.903 70.84C153.073 69.048 153.159 67.4907 153.159 66.168ZM161.863 66.488C161.863 69.7733 161.116 72.696 159.623 75.256C158.129 77.7733 156.081 79.7573 153.479 81.208C150.919 82.6587 147.996 83.384 144.711 83.384C141.425 83.384 138.524 82.616 136.007 81.08C133.489 79.544 131.505 77.4747 130.055 74.872C128.647 72.2693 127.943 69.3467 127.943 66.104C127.943 62.7333 128.647 59.7253 130.055 57.08C131.463 54.392 133.447 52.28 136.007 50.744C138.567 49.1653 141.553 48.376 144.967 48.376C148.721 48.376 151.836 49.144 154.311 50.68C156.828 52.1733 158.705 54.2853 159.943 57.016C161.223 59.704 161.863 62.8613 161.863 66.488ZM188.494 79.928C188.494 80.5253 188.174 81.0587 187.534 81.528C186.937 81.9547 186.169 82.3173 185.23 82.616C184.334 82.872 183.417 83.064 182.478 83.192C181.539 83.32 180.75 83.384 180.11 83.384C176.91 83.384 174.691 82.744 173.454 81.464C172.217 80.1413 171.598 77.9653 171.598 74.936C171.598 71.2667 171.619 67.5973 171.662 63.928C171.705 60.2587 171.726 56.5893 171.726 52.92H168.782C168.355 52.92 167.993 53.0693 167.694 53.368C167.395 53.624 167.118 53.752 166.862 53.752C166.435 53.752 166.222 53.5387 166.222 53.112C166.222 52.9413 166.307 52.6213 166.478 52.152C166.649 51.6827 166.777 51.384 166.862 51.256C166.99 51 167.118 50.8507 167.246 50.808C167.374 50.7653 167.566 50.744 167.822 50.744H171.79V43.896C172.857 43.2987 174.03 42.424 175.31 41.272C176.59 40.12 177.571 39.0533 178.254 38.072C178.382 37.8587 178.553 37.6453 178.766 37.432C178.979 37.176 179.235 37.048 179.534 37.048C180.217 37.048 180.537 37.3467 180.494 37.944L180.302 50.744H186.894C187.235 50.744 187.534 50.8293 187.79 51C188.089 51.128 188.238 51.384 188.238 51.768C188.238 52.5787 187.79 52.984 186.894 52.984H180.302L180.174 77.688C180.174 78.3707 180.302 79.032 180.558 79.672C180.857 80.2693 181.411 80.568 182.222 80.568C182.947 80.568 183.673 80.504 184.398 80.376C185.166 80.248 185.87 80.0347 186.51 79.736C186.723 79.6507 186.915 79.5653 187.086 79.48C187.299 79.352 187.513 79.288 187.726 79.288C188.238 79.288 188.494 79.5013 188.494 79.928ZM209.939 76.216C209.811 74.2107 209.725 72.2053 209.683 70.2C209.64 68.152 209.64 66.104 209.683 64.056C207.933 64.3547 206.227 64.9093 204.562 65.72C202.941 66.488 201.597 67.5333 200.531 68.856C199.464 70.1787 198.931 71.864 198.931 73.912C198.931 74.7653 199.037 75.6827 199.251 76.664C199.507 77.6453 199.933 78.4773 200.531 79.16C201.171 79.8 202.024 80.12 203.091 80.12C203.859 80.12 204.669 79.9067 205.523 79.48C206.376 79.0107 207.187 78.4773 207.955 77.88C208.765 77.2827 209.427 76.728 209.939 76.216ZM223.123 79.992C223.123 80.1627 223.037 80.3547 222.867 80.568C222.739 80.7813 222.611 80.952 222.483 81.08C221.16 82.616 219.453 83.384 217.363 83.384C215.528 83.384 214.056 82.9787 212.947 82.168C211.837 81.3573 210.984 80.0987 210.387 78.392C209.021 79.8427 207.549 80.9947 205.971 81.848C204.435 82.7013 202.621 83.128 200.531 83.128C199.037 83.128 197.523 82.808 195.987 82.168C194.493 81.4853 193.235 80.5253 192.211 79.288C191.229 78.0507 190.739 76.6213 190.739 75C190.739 73.3787 191.144 71.9493 191.955 70.712C192.808 69.432 193.875 68.344 195.155 67.448C196.435 66.5093 197.736 65.7413 199.059 65.144C200.765 64.4187 202.515 63.864 204.307 63.48C206.099 63.0533 207.891 62.6267 209.683 62.2V61.944C209.683 61.176 209.661 60.152 209.619 58.872C209.619 57.5493 209.491 56.248 209.235 54.968C208.979 53.6453 208.552 52.536 207.955 51.64C207.357 50.7013 206.483 50.232 205.331 50.232C204.008 50.232 202.813 50.616 201.747 51.384C200.723 52.152 199.997 53.176 199.571 54.456C199.485 54.84 199.421 55.224 199.379 55.608C199.336 55.9493 199.272 56.312 199.187 56.696C199.101 57.3787 198.696 57.848 197.97 58.104C197.288 58.3173 196.648 58.424 196.051 58.424C195.325 58.424 194.621 58.2747 193.939 57.976C193.256 57.6347 192.915 57.016 192.915 56.12C192.915 55.7787 192.957 55.48 193.043 55.224C193.171 54.9253 193.299 54.6267 193.427 54.328C194.109 52.7067 195.133 51.512 196.499 50.744C197.864 49.976 199.357 49.464 200.979 49.208C202.643 48.952 204.221 48.824 205.715 48.824C209.213 48.824 212.093 49.7627 214.355 51.64C216.616 53.5173 217.747 56.2907 217.747 59.96V69.624C217.704 70.8187 217.683 72.056 217.683 73.336C217.725 74.5733 217.789 75.8107 217.875 77.048C217.96 77.7733 218.131 78.4773 218.387 79.16C218.643 79.8 219.219 80.12 220.115 80.12C220.712 80.12 221.203 79.992 221.587 79.736C222.013 79.48 222.397 79.352 222.739 79.352C222.909 79.352 223.016 79.4373 223.059 79.608C223.101 79.7787 223.123 79.9067 223.123 79.992ZM262.351 82.104C262.351 82.7867 262.01 83.128 261.327 83.128C260.09 83.128 258.831 83.0853 257.551 83C256.314 82.9573 255.076 82.936 253.839 82.936C252.644 82.936 251.428 82.9573 250.191 83C248.954 83.0853 247.716 83.128 246.479 83.128C246.18 83.128 245.967 83.0213 245.839 82.808C245.711 82.552 245.647 82.296 245.647 82.04C245.647 81.4 245.988 81.08 246.671 81.08C247.055 81.08 247.439 81.1013 247.823 81.144C248.207 81.144 248.591 81.144 248.975 81.144C249.615 81.144 249.935 80.8667 249.935 80.312C249.935 76.728 249.935 73.144 249.935 69.56C249.978 65.976 249.999 62.392 249.999 58.808C249.999 57.656 249.892 56.4613 249.679 55.224C249.508 53.9867 249.082 52.9413 248.399 52.088C247.759 51.2347 246.692 50.808 245.199 50.808C244.26 50.808 243.279 51.1493 242.255 51.832C241.274 52.5147 240.378 53.3253 239.567 54.264C238.799 55.2027 238.244 56.0773 237.903 56.888V79.544C237.903 79.928 237.946 80.2907 238.031 80.632C238.159 80.9733 238.458 81.144 238.927 81.144C239.268 81.144 239.61 81.144 239.951 81.144C240.335 81.1013 240.698 81.08 241.039 81.08C241.252 81.08 241.466 81.1653 241.679 81.336C241.892 81.5067 241.999 81.6987 241.999 81.912C241.999 82.7227 241.658 83.128 240.975 83.128C239.78 83.128 238.586 83.0853 237.391 83C236.239 82.872 235.044 82.808 233.807 82.808C232.527 82.808 231.226 82.872 229.903 83C228.623 83.0853 227.322 83.128 225.999 83.128C225.7 83.128 225.487 83.0213 225.359 82.808C225.231 82.552 225.167 82.296 225.167 82.04C225.167 81.4 225.508 81.08 226.191 81.08C226.575 81.08 226.959 81.1013 227.343 81.144C227.727 81.144 228.132 81.144 228.559 81.144C229.156 81.144 229.498 81.016 229.583 80.76C229.668 80.504 229.711 80.0987 229.711 79.544V70.264C229.711 67.6613 229.711 65.0587 229.711 62.456C229.711 59.8533 229.711 57.2507 229.711 54.648C229.711 54.1787 229.647 53.6667 229.519 53.112C229.391 52.5147 229.007 52.216 228.367 52.216C227.94 52.216 227.514 52.2373 227.087 52.28C226.703 52.3227 226.298 52.344 225.871 52.344C225.615 52.344 225.316 52.3013 224.975 52.216C224.676 52.088 224.527 51.8533 224.527 51.512C224.527 51.256 224.612 51.064 224.783 50.936C224.954 50.808 225.146 50.7227 225.359 50.68C225.786 50.552 226.234 50.4667 226.703 50.424C227.172 50.3813 227.62 50.3173 228.047 50.232C229.156 50.0187 230.244 49.784 231.311 49.528C232.42 49.2293 233.508 48.9307 234.575 48.632C234.746 48.5467 234.916 48.4827 235.087 48.44C235.258 48.3547 235.428 48.312 235.599 48.312C235.94 48.312 236.239 48.632 236.495 49.272C236.794 49.912 237.028 50.5947 237.199 51.32C237.412 52.0453 237.54 52.5573 237.583 52.856C238.82 51.7467 240.314 50.7653 242.063 49.912C243.812 49.016 245.54 48.568 247.247 48.568C250.106 48.568 252.324 48.9307 253.903 49.656C255.524 50.3813 256.676 51.5973 257.359 53.304C258.042 54.968 258.383 57.208 258.383 60.024C258.383 63.352 258.362 66.68 258.319 70.008C258.276 73.336 258.255 76.664 258.255 79.992C258.255 80.4187 258.383 80.7387 258.639 80.952C258.938 81.1227 259.3 81.208 259.727 81.208C260.026 81.208 260.303 81.1867 260.559 81.144C260.858 81.1013 261.156 81.08 261.455 81.08C262.052 81.08 262.351 81.4213 262.351 82.104ZM283.909 82.232C283.909 82.9147 283.567 83.256 282.885 83.256C281.647 83.256 280.389 83.192 279.109 83.064C277.829 82.9787 276.549 82.936 275.269 82.936C273.989 82.936 272.687 82.9787 271.365 83.064C270.085 83.192 268.805 83.256 267.525 83.256C267.226 83.256 267.013 83.1493 266.885 82.936C266.757 82.68 266.693 82.4453 266.693 82.232C266.693 81.5493 267.013 81.208 267.653 81.208C268.079 81.208 268.485 81.2293 268.869 81.272C269.253 81.3147 269.637 81.336 270.021 81.336C270.533 81.336 270.853 81.1653 270.981 80.824C271.151 80.4827 271.237 80.0987 271.237 79.672V54.264C271.237 53.8373 271.194 53.368 271.109 52.856C271.023 52.3013 270.682 52.024 270.085 52.024C269.53 52.024 268.954 52.0667 268.357 52.152C267.759 52.2373 267.162 52.28 266.565 52.28C266.309 52.28 266.053 52.216 265.797 52.088C265.583 51.96 265.477 51.7467 265.477 51.448C265.477 50.8933 265.754 50.5307 266.309 50.36C266.778 50.2747 267.269 50.2107 267.781 50.168C268.335 50.0827 268.847 50.0187 269.317 49.976C270.81 49.7627 272.261 49.5067 273.669 49.208C275.119 48.8667 276.57 48.5253 278.021 48.184C278.149 48.184 278.277 48.184 278.405 48.184C278.533 48.1413 278.639 48.12 278.725 48.12C279.365 48.12 279.685 48.376 279.685 48.888C279.685 54.008 279.663 59.1493 279.621 64.312C279.578 69.432 279.557 74.552 279.557 79.672C279.557 80.44 279.727 80.9307 280.069 81.144C280.41 81.3147 280.837 81.3787 281.349 81.336C281.903 81.2933 282.458 81.272 283.013 81.272C283.61 81.272 283.909 81.592 283.909 82.232ZM279.877 38.264C279.877 39.5867 279.386 40.7387 278.405 41.72C277.466 42.7013 276.314 43.192 274.949 43.192C273.626 43.192 272.474 42.7013 271.493 41.72C270.511 40.7387 270.021 39.5867 270.021 38.264C270.021 36.8987 270.511 35.7467 271.493 34.808C272.474 33.8267 273.626 33.336 274.949 33.336C276.314 33.336 277.466 33.8267 278.405 34.808C279.386 35.7467 279.877 36.8987 279.877 38.264ZM312.501 42.744C312.501 43.8107 311.925 44.344 310.773 44.344C310.218 44.344 309.791 44.088 309.493 43.576C309.194 43.064 308.938 42.424 308.725 41.656C308.511 40.888 308.255 40.12 307.957 39.352C307.658 38.584 307.21 37.944 306.613 37.432C306.015 36.92 305.162 36.664 304.053 36.664C303.071 36.664 302.303 36.9627 301.749 37.56C301.194 38.1573 300.81 38.8827 300.597 39.736C300.383 40.5467 300.277 41.3573 300.277 42.168C300.277 43.6187 300.298 45.0693 300.341 46.52C300.426 47.928 300.49 49.3573 300.533 50.808H307.765C308.106 50.808 308.362 50.9147 308.533 51.128C308.703 51.3413 308.789 51.5973 308.789 51.896C308.789 52.1947 308.703 52.472 308.533 52.728C308.362 52.984 308.106 53.112 307.765 53.112H300.789V62.968C300.789 65.4853 300.789 68.024 300.789 70.584C300.831 73.144 300.853 75.6827 300.853 78.2C300.853 78.6267 300.917 79.2027 301.045 79.928C301.215 80.6533 301.578 81.016 302.133 81.016C302.645 81.016 303.157 81.016 303.669 81.016C304.223 80.9733 304.757 80.952 305.269 80.952C305.525 80.952 305.759 81.1227 305.973 81.464C306.186 81.7627 306.293 82.0187 306.293 82.232C306.293 82.616 306.143 82.872 305.845 83C305.546 83.1707 305.247 83.256 304.949 83.256C303.413 83.256 301.877 83.2133 300.341 83.128C298.847 83.0853 297.354 83.064 295.861 83.064C294.581 83.064 293.301 83.0853 292.021 83.128C290.741 83.1707 289.461 83.192 288.181 83.192C287.455 83.192 287.093 82.8293 287.093 82.104C287.093 81.464 287.391 81.1013 287.989 81.016C288.501 80.9733 289.013 80.9733 289.525 81.016C290.037 81.0587 290.549 81.08 291.061 81.08C291.786 81.08 292.213 80.7387 292.341 80.056C292.469 79.3307 292.533 78.712 292.533 78.2V52.984H289.205C288.778 52.984 288.458 53.1547 288.245 53.496C288.031 53.7947 287.775 53.944 287.477 53.944C286.965 53.944 286.709 53.6453 286.709 53.048C286.709 52.92 286.773 52.6427 286.901 52.216C287.029 51.7467 287.114 51.448 287.157 51.32C287.327 50.8507 287.626 50.6587 288.053 50.744C288.479 50.7867 288.885 50.808 289.269 50.808H292.533V46.008C292.533 41.8693 293.557 38.9893 295.605 37.368C297.653 35.7467 300.618 34.936 304.501 34.936C305.738 34.936 306.975 35.2133 308.213 35.768C309.45 36.28 310.538 36.536 311.477 36.536C311.69 36.536 311.861 36.5147 311.989 36.472C312.074 37.496 312.181 38.5413 312.309 39.608C312.437 40.6747 312.501 41.72 312.501 42.744ZM349.214 49.656C349.214 50.2533 348.915 50.5733 348.318 50.616C347.721 50.616 347.209 50.616 346.782 50.616C346.227 50.616 345.779 50.808 345.438 51.192C345.097 51.5333 344.819 51.9387 344.606 52.408C342.942 55.992 341.257 59.5547 339.55 63.096C337.843 66.6373 336.179 70.2 334.558 73.784C333.491 76.2587 332.361 78.7547 331.166 81.272C330.014 83.7467 328.819 86.2 327.582 88.632C327.241 89.3147 326.878 89.9973 326.494 90.68C326.153 91.4053 325.769 92.1307 325.342 92.856C324.574 94.0507 323.635 94.904 322.526 95.416C321.417 95.9707 320.158 96.248 318.75 96.248C317.299 96.248 315.998 95.8 314.846 94.904C313.694 94.0507 313.118 92.8347 313.118 91.256C313.118 90.2747 313.481 89.464 314.206 88.824C314.974 88.2267 315.827 87.928 316.766 87.928C317.235 87.928 317.641 88.0133 317.982 88.184C317.939 89.3787 318.131 90.2107 318.558 90.68C318.985 91.192 319.795 91.448 320.99 91.448C321.374 91.448 321.758 91.3413 322.142 91.128C322.526 90.9573 322.867 90.7653 323.166 90.552C323.55 90.2533 323.998 89.72 324.51 88.952C325.065 88.2267 325.555 87.4373 325.982 86.584C326.451 85.7733 326.729 85.1333 326.814 84.664C326.857 84.4507 326.899 84.216 326.942 83.96C326.985 83.704 327.006 83.4693 327.006 83.256C327.006 82.0187 326.707 80.44 326.11 78.52C325.513 76.5573 324.766 74.488 323.87 72.312C323.017 70.136 322.163 68.088 321.31 66.168C320.457 64.2053 319.774 62.584 319.262 61.304C318.707 59.8533 318.11 58.4027 317.47 56.952C316.873 55.4587 316.147 54.072 315.294 52.792C314.825 52.0667 314.27 51.6613 313.63 51.576C313.033 51.4907 312.35 51.448 311.582 51.448C311.411 51.448 311.219 51.384 311.006 51.256C310.835 51.128 310.75 50.9573 310.75 50.744C310.75 50.1467 311.027 49.784 311.582 49.656C312.777 49.4427 314.014 49.2933 315.294 49.208C316.617 49.08 317.875 48.9307 319.07 48.76C319.539 48.6747 319.987 48.6107 320.414 48.568C320.883 48.5253 321.331 48.504 321.758 48.504C322.355 48.504 322.761 48.632 322.974 48.888C323.187 49.1013 323.379 49.4427 323.55 49.912C324.147 51.192 324.681 52.4933 325.15 53.816C325.662 55.1387 326.153 56.4827 326.622 57.848C327.518 60.3653 328.457 62.904 329.438 65.464C330.419 68.024 331.315 70.6053 332.126 73.208C332.467 72.44 332.958 71.288 333.598 69.752C334.281 68.1733 335.006 66.4453 335.774 64.568C336.585 62.648 337.353 60.7493 338.078 58.872C338.803 56.9947 339.401 55.3307 339.87 53.88C340.339 52.3867 340.574 51.3413 340.574 50.744C340.574 50.5307 340.446 50.424 340.19 50.424C339.934 50.3813 339.742 50.36 339.614 50.36C339.187 50.36 338.739 50.3813 338.27 50.424C337.843 50.424 337.395 50.424 336.926 50.424C336.585 50.424 336.286 50.3813 336.03 50.296C335.774 50.2107 335.646 49.9547 335.646 49.528C335.646 49.016 335.774 48.7387 336.03 48.696C336.329 48.6533 336.649 48.632 336.99 48.632C338.867 48.632 340.745 48.632 342.622 48.632C344.542 48.5893 346.419 48.568 348.254 48.568C348.894 48.568 349.214 48.9307 349.214 49.656Z" fill="#212121"/>
<path d="M64.7373 11.475C62.7939 13.05 59.2434 15.6375 56.8888 17.2125C54.5343 18.7875 50.6474 21.525 48.2929 23.2875C45.9383 25.05 43.0232 27.1875 41.8646 28.05C34.8383 33.225 27.5504 40.3125 25.906 43.6125C24.4858 46.4625 23.6636 49.6875 23.5515 52.8L23.4393 55.125L29.4191 57.15C36.4454 59.475 38.2393 60.3375 41.8646 63.15C43.3595 64.3125 44.6302 65.25 44.705 65.25C44.8171 65.25 44.9666 64.6875 45.1161 64.0125C45.5272 61.9875 47.8444 54.15 49.6757 48.5625C51.208 43.9125 57.1878 31.05 58.3838 29.85C59.1686 29.0625 59.0191 29.9625 57.7858 33.75C53.7121 46.2 51.2454 57.3 49.3767 71.55C48.9282 75.1125 49.1151 88.05 49.6757 90.7875L49.9747 92.1375L52.5908 91.6125C58.0848 90.4875 63.0929 87.45 68.3252 82.05C76.211 73.9125 78.4161 66.7875 77.0706 53.7C76.4353 47.475 75.4636 43.0875 72.2121 31.125C70.605 25.2 68.7737 15.7875 68.5494 12.2625L68.2878 8.55L64.7373 11.475Z" fill="#627B6B"/>
<path d="M6.43433 54.75C6.43433 54.9375 6.62119 55.5375 6.84544 56.1375C7.59291 58.125 8.97574 65.8125 9.61109 71.625C10.6949 81.7125 12.2646 86.55 15.8899 91.1625C19.403 95.5875 24.2616 97.7625 31.4374 98.1375C35.4737 98.3625 35.6606 98.325 35.4737 97.65C35.3616 97.275 35.0626 96 34.801 94.875C33.9788 91.1625 32.3343 87.7125 26.9525 78.5625C25.9434 76.8 21.8323 70.9875 19.1788 67.5C18.1323 66.1875 17.3848 65.025 17.4596 64.95C17.8333 64.575 23.3273 69.525 28.7464 75.15C33.2313 79.8 35.2869 82.275 37.6414 85.875C39.3232 88.4625 41.005 91.125 41.3414 91.8C41.6778 92.4375 42.0889 93 42.2757 93C42.6869 93 44.2939 89.25 44.9667 86.8125C45.2656 85.6875 45.4525 83.0625 45.4525 80.25C45.4525 75.9375 45.3778 75.375 44.4434 73.3125C41.3788 66.675 36.5949 63.5625 26.0555 61.3125C22.9535 60.6375 15.3293 58.05 9.72322 55.7625C7.8919 55.05 6.43433 54.5625 6.43433 54.75Z" fill="#3E5D50"/>
</svg>
