<svg width="100%" height="100%" viewBox="0 0 354 102" preserveAspectRatio="xMidYMid meet" xmlns="http://www.w3.org/2000/svg">
<path d="M108.336 79.704C106.373 79.704 104.603 79.32 103.024 78.552C101.445 77.7413 100.315 76.824 99.632 75.8V79H89.968V31H99.632V50.2C100.315 49.176 101.445 48.28 103.024 47.512C104.603 46.7013 106.373 46.296 108.336 46.296C112.475 46.296 115.973 47.9387 118.832 51.224C121.733 54.5093 123.184 58.4347 123.184 63C123.184 67.5653 121.733 71.4907 118.832 74.776C115.973 78.0613 112.475 79.704 108.336 79.704ZM100.848 68.696C102.213 70.1893 103.984 70.936 106.16 70.936C108.336 70.936 110.085 70.1893 111.408 68.696C112.773 67.2027 113.456 65.304 113.456 63C113.456 60.696 112.773 58.7973 111.408 57.304C110.085 55.8107 108.336 55.064 106.16 55.064C103.984 55.064 102.213 55.8107 100.848 57.304C99.5253 58.7973 98.864 60.696 98.864 63C98.864 65.304 99.5253 67.2027 100.848 68.696ZM155.97 74.904C152.685 78.104 148.717 79.704 144.066 79.704C139.415 79.704 135.447 78.104 132.162 74.904C128.877 71.6613 127.234 67.6933 127.234 63C127.234 58.3067 128.877 54.36 132.162 51.16C135.447 47.9173 139.415 46.296 144.066 46.296C148.717 46.296 152.685 47.9173 155.97 51.16C159.255 54.36 160.898 58.3067 160.898 63C160.898 67.6933 159.255 71.6613 155.97 74.904ZM138.946 68.568C140.311 69.976 142.018 70.68 144.066 70.68C146.114 70.68 147.799 69.976 149.122 68.568C150.487 67.16 151.17 65.304 151.17 63C151.17 60.696 150.487 58.84 149.122 57.432C147.799 56.024 146.114 55.32 144.066 55.32C142.018 55.32 140.311 56.024 138.946 57.432C137.623 58.84 136.962 60.696 136.962 63C136.962 65.304 137.623 67.16 138.946 68.568ZM182.413 79.384C178.658 79.384 175.565 78.36 173.133 76.312C170.744 74.2213 169.549 71.2133 169.549 67.288V55.384H163.149V47H169.549V38.104H179.213V47H188.173V55.384H179.213V65.304C179.213 67.224 179.64 68.6107 180.493 69.464C181.346 70.3173 182.733 70.744 184.653 70.744C186.104 70.744 187.277 70.552 188.173 70.168V78.744C186.765 79.1707 184.845 79.384 182.413 79.384ZM206.771 79.704C202.632 79.704 199.112 78.0613 196.211 74.776C193.352 71.4907 191.923 67.5653 191.923 63C191.923 58.4347 193.352 54.5093 196.211 51.224C199.112 47.9387 202.632 46.296 206.771 46.296C210.44 46.296 213.342 47.5973 215.475 50.2V47H225.139V79H215.475V75.8C213.342 78.4027 210.44 79.704 206.771 79.704ZM203.635 68.696C205 70.1893 206.771 70.936 208.947 70.936C211.123 70.936 212.872 70.1893 214.195 68.696C215.56 67.2027 216.243 65.304 216.243 63C216.243 60.696 215.56 58.7973 214.195 57.304C212.872 55.8107 211.123 55.064 208.947 55.064C206.771 55.064 205 55.8107 203.635 57.304C202.312 58.7973 201.651 60.696 201.651 63C201.651 65.304 202.312 67.2027 203.635 68.696ZM233.093 79V47H242.757V50.264C244.592 47.6187 247.557 46.296 251.653 46.296C255.536 46.296 258.565 47.5973 260.741 50.2C262.96 52.8027 264.069 56.2373 264.069 60.504V79H254.405V62.168C254.405 57.432 252.677 55.064 249.221 55.064C247.301 55.064 245.744 55.768 244.549 57.176C243.354 58.584 242.757 60.6747 242.757 63.448V79H233.093ZM276.393 42.648C274.772 42.648 273.364 42.072 272.169 40.92C270.974 39.7253 270.377 38.296 270.377 36.632C270.377 34.968 270.974 33.56 272.169 32.408C273.364 31.2133 274.772 30.616 276.393 30.616C278.1 30.616 279.529 31.2133 280.681 32.408C281.876 33.56 282.473 34.968 282.473 36.632C282.473 38.296 281.876 39.7253 280.681 40.92C279.529 42.072 278.1 42.648 276.393 42.648ZM271.593 79V47H281.257V79H271.593ZM292.802 79V55.384H286.402V47H292.802V43.48C292.802 39.5547 294.018 36.44 296.45 34.136C298.925 31.7893 301.997 30.616 305.666 30.616C307.97 30.616 309.89 30.8507 311.426 31.32V39.832C310.53 39.448 309.378 39.256 307.97 39.256C306.007 39.256 304.599 39.6827 303.746 40.536C302.893 41.3893 302.466 42.776 302.466 44.696V47H311.426V55.384H302.466V79H292.802ZM329.463 92.376H319.031L325.687 77.144L312.375 47H322.935L330.871 66.776L338.743 47H349.367L329.463 92.376Z" fill="#212121"/>
<path d="M64.7373 11.475C62.7939 13.05 59.2434 15.6375 56.8888 17.2125C54.5343 18.7875 50.6474 21.525 48.2929 23.2875C45.9383 25.05 43.0232 27.1875 41.8646 28.05C34.8383 33.225 27.5504 40.3125 25.906 43.6125C24.4858 46.4625 23.6636 49.6875 23.5515 52.8L23.4393 55.125L29.4191 57.15C36.4454 59.475 38.2393 60.3375 41.8646 63.15C43.3595 64.3125 44.6302 65.25 44.705 65.25C44.8171 65.25 44.9666 64.6875 45.1161 64.0125C45.5272 61.9875 47.8444 54.15 49.6757 48.5625C51.208 43.9125 57.1878 31.05 58.3838 29.85C59.1686 29.0625 59.0191 29.9625 57.7858 33.75C53.7121 46.2 51.2454 57.3 49.3767 71.55C48.9282 75.1125 49.1151 88.05 49.6757 90.7875L49.9747 92.1375L52.5908 91.6125C58.0848 90.4875 63.0929 87.45 68.3252 82.05C76.211 73.9125 78.4161 66.7875 77.0706 53.7C76.4353 47.475 75.4636 43.0875 72.2121 31.125C70.605 25.2 68.7737 15.7875 68.5494 12.2625L68.2878 8.55L64.7373 11.475Z" fill="#627B6B"/>
<path d="M6.43433 54.75C6.43433 54.9375 6.62119 55.5375 6.84544 56.1375C7.59291 58.125 8.97574 65.8125 9.61109 71.625C10.6949 81.7125 12.2646 86.55 15.8899 91.1625C19.403 95.5875 24.2616 97.7625 31.4374 98.1375C35.4737 98.3625 35.6606 98.325 35.4737 97.65C35.3616 97.275 35.0626 96 34.801 94.875C33.9788 91.1625 32.3343 87.7125 26.9525 78.5625C25.9434 76.8 21.8323 70.9875 19.1788 67.5C18.1323 66.1875 17.3848 65.025 17.4596 64.95C17.8333 64.575 23.3273 69.525 28.7464 75.15C33.2313 79.8 35.2869 82.275 37.6414 85.875C39.3232 88.4625 41.005 91.125 41.3414 91.8C41.6778 92.4375 42.0889 93 42.2757 93C42.6869 93 44.2939 89.25 44.9667 86.8125C45.2656 85.6875 45.4525 83.0625 45.4525 80.25C45.4525 75.9375 45.3778 75.375 44.4434 73.3125C41.3788 66.675 36.5949 63.5625 26.0555 61.3125C22.9535 60.6375 15.3293 58.05 9.72322 55.7625C7.8919 55.05 6.43433 54.5625 6.43433 54.75Z" fill="#3E5D50"/>
</svg>
