<svg width="444" height="128" viewBox="0 0 444 128" fill="none" xmlns="http://www.w3.org/2000/svg">
<path d="M135.879 100.021C133.417 100.021 131.197 99.5389 129.217 98.5751C127.236 97.5577 125.819 96.4066 124.962 95.1216V99.1373H112.841V38.902H124.962V62.9961C125.819 61.7111 127.236 60.5867 129.217 59.6229C131.197 58.6056 133.417 58.097 135.879 58.097C141.07 58.097 145.458 60.1584 149.044 64.2811C152.682 68.4039 154.502 73.3298 154.502 79.0588C154.502 84.7879 152.682 89.7138 149.044 93.8366C145.458 97.9593 141.07 100.021 135.879 100.021ZM126.487 86.2068C128.199 88.0807 130.421 89.0177 133.15 89.0177C135.879 89.0177 138.073 88.0807 139.732 86.2068C141.444 84.3328 142.301 81.9501 142.301 79.0588C142.301 76.1676 141.444 73.7849 139.732 71.9109C138.073 70.037 135.879 69.0999 133.15 69.0999C130.421 69.0999 128.199 70.037 126.487 71.9109C124.828 73.7849 123.999 76.1676 123.999 79.0588C123.999 81.9501 124.828 84.3328 126.487 86.2068ZM195.623 93.9972C191.503 98.0129 186.526 100.021 180.693 100.021C174.859 100.021 169.883 98.0129 165.763 93.9972C161.642 89.9279 159.582 84.9485 159.582 79.0588C159.582 73.1692 161.642 68.2165 165.763 64.2008C169.883 60.1315 174.859 58.097 180.693 58.097C186.526 58.097 191.503 60.1315 195.623 64.2008C199.744 68.2165 201.804 73.1692 201.804 79.0588C201.804 84.9485 199.744 89.9279 195.623 93.9972ZM174.271 86.0461C175.983 87.813 178.124 88.6965 180.693 88.6965C183.262 88.6965 185.375 87.813 187.034 86.0461C188.746 84.2792 189.603 81.9501 189.603 79.0588C189.603 76.1676 188.746 73.8385 187.034 72.0716C185.375 70.3047 183.262 69.4212 180.693 69.4212C178.124 69.4212 175.983 70.3047 174.271 72.0716C172.612 73.8385 171.783 76.1676 171.783 79.0588C171.783 81.9501 172.612 84.2792 174.271 86.0461ZM228.789 99.6192C224.08 99.6192 220.2 98.3341 217.15 95.7641C214.153 93.1405 212.655 89.3657 212.655 84.4399V69.5015H204.628V58.9804H212.655V47.8168H224.776V58.9804H236.014V69.5015H224.776V81.9501C224.776 84.3596 225.311 86.0997 226.381 87.1705C227.451 88.2413 229.191 88.7768 231.599 88.7768C233.419 88.7768 234.89 88.5359 236.014 88.054V98.816C234.248 99.3515 231.839 99.6192 228.789 99.6192ZM259.34 100.021C254.149 100.021 249.734 97.9593 246.095 93.8366C242.509 89.7138 240.717 84.7879 240.717 79.0588C240.717 73.3298 242.509 68.4039 246.095 64.2811C249.734 60.1584 254.149 58.097 259.34 58.097C263.942 58.097 267.581 59.73 270.257 62.9961V58.9804H282.378V99.1373H270.257V95.1216C267.581 98.3877 263.942 100.021 259.34 100.021ZM255.407 86.2068C257.119 88.0807 259.34 89.0177 262.069 89.0177C264.798 89.0177 266.992 88.0807 268.651 86.2068C270.363 84.3328 271.22 81.9501 271.22 79.0588C271.22 76.1676 270.363 73.7849 268.651 71.9109C266.992 70.037 264.798 69.0999 262.069 69.0999C259.34 69.0999 257.119 70.037 255.407 71.9109C253.747 73.7849 252.918 76.1676 252.918 79.0588C252.918 81.9501 253.747 84.3328 255.407 86.2068ZM292.354 99.1373V58.9804H304.475V63.0764C306.776 59.7568 310.495 58.097 315.633 58.097C320.503 58.097 324.302 59.73 327.031 62.9961C329.814 66.2622 331.205 70.5723 331.205 75.9266V99.1373H319.084V78.0148C319.084 72.0716 316.917 69.0999 312.582 69.0999C310.174 69.0999 308.221 69.9834 306.722 71.7503C305.224 73.5172 304.475 76.1408 304.475 79.621V99.1373H292.354ZM346.662 53.5191C344.629 53.5191 342.863 52.7963 341.365 51.3506C339.866 49.8514 339.117 48.0578 339.117 45.9696C339.117 43.8814 339.866 42.1145 341.365 40.6689C342.863 39.1697 344.629 38.4201 346.662 38.4201C348.803 38.4201 350.596 39.1697 352.041 40.6689C353.539 42.1145 354.288 43.8814 354.288 45.9696C354.288 48.0578 353.539 49.8514 352.041 51.3506C350.596 52.7963 348.803 53.5191 346.662 53.5191ZM340.642 99.1373V58.9804H352.763V99.1373H340.642ZM367.243 99.1373V69.5015H359.216V58.9804H367.243V54.5632C367.243 49.6373 368.768 45.7287 371.819 42.8374C374.923 39.8925 378.776 38.4201 383.378 38.4201C386.267 38.4201 388.676 38.7146 390.602 39.3036V49.9853C389.478 49.5034 388.033 49.2625 386.267 49.2625C383.805 49.2625 382.039 49.7979 380.97 50.8687C379.9 51.9395 379.364 53.6797 379.364 56.0891V58.9804H390.602V69.5015H379.364V99.1373H367.243ZM413.225 115.923H400.141L408.489 96.8082L391.792 58.9804H405.037L414.991 83.7974L424.864 58.9804H438.189L413.225 115.923Z" fill="#FEFEFE"/>
<path d="M81.1959 14.4C78.7584 16.3765 74.3053 19.6235 71.3521 21.6C68.3989 23.5765 63.5238 27.0118 60.5707 29.2235C57.6175 31.4353 53.9613 34.1177 52.5081 35.2C43.6955 41.6941 34.5547 50.5883 32.4923 54.7294C30.711 58.3059 29.6798 62.353 29.5392 66.2588L29.3984 69.1765L36.8985 71.7177C45.7112 74.6353 47.9612 75.7177 52.5081 79.2471C54.3831 80.7059 55.9769 81.8824 56.0707 81.8824C56.2113 81.8824 56.3988 81.1765 56.5863 80.3294C57.1019 77.7883 60.0082 67.953 62.3051 60.9412C64.227 55.1059 71.7271 38.9647 73.2271 37.4588C74.2115 36.4706 74.0239 37.6 72.4771 42.353C67.3677 57.9765 64.2739 71.9059 61.9301 89.7883C61.3676 94.2589 61.602 110.494 62.3051 113.929L62.6801 115.624L65.9613 114.965C72.8521 113.553 79.1335 109.741 85.696 102.965C95.5867 92.753 98.3524 83.8118 96.6648 67.3883C95.868 59.5765 94.6493 54.0706 90.5711 39.0588C88.5554 31.6236 86.2585 19.8118 85.9772 15.3883L85.6491 10.7294L81.1959 14.4Z" fill="#FEFEFE"/>
<path d="M8.07019 68.7059C8.07019 68.9412 8.30456 69.6941 8.58582 70.447C9.52332 72.9412 11.2577 82.5882 12.0546 89.8823C13.414 102.541 15.3827 108.612 19.9297 114.4C24.336 119.953 30.4298 122.682 39.43 123.153C44.4925 123.435 44.7269 123.388 44.4925 122.541C44.3519 122.071 43.9768 120.471 43.6487 119.059C42.6175 114.4 40.5549 110.071 33.8048 98.5882C32.5392 96.3765 27.3829 89.0823 24.0548 84.7059C22.7422 83.0588 21.8047 81.6 21.8985 81.5059C22.3672 81.0353 29.258 87.247 36.0548 94.3059C41.68 100.141 44.2582 103.247 47.2113 107.765C49.3206 111.012 51.43 114.353 51.8519 115.2C52.2739 116 52.7895 116.706 53.0238 116.706C53.5395 116.706 55.5551 112 56.3989 108.941C56.7738 107.529 57.0082 104.235 57.0082 100.706C57.0082 95.2941 56.9145 94.5882 55.7426 92C51.8988 83.6706 45.8987 79.7647 32.6798 76.9412C28.7892 76.0941 19.2266 72.847 12.1952 69.9765C9.89833 69.0823 8.07019 68.4706 8.07019 68.7059Z" fill="#FEFEFE"/>
</svg>
