<svg width="54" height="56" viewBox="0 0 54 56" preserveAspectRatio="xMidYMid meet" xmlns="http://www.w3.org/2000/svg">
<path d="M2.78621 1.1462C2.52285 1.99415 2.874 6.64327 3.42998 9.18713C4.83456 15.883 7.55594 19.9766 11.8867 22.0234C14.1984 23.1345 18.061 23.3977 21.1043 22.6374C22.9186 22.1988 23.3575 22.1988 24.5572 22.5497C25.3473 22.7544 27.3079 22.9298 29.2685 22.9298C32.6043 22.9298 32.6629 22.9298 34.916 21.7895C39.042 19.7427 41.1781 16.4971 42.7583 9.91813C43.4021 7.16959 43.8117 2.54971 43.4899 1.2924L43.285 0.473685L39.4224 0.649123C35.1794 0.795322 31.902 1.38012 28.9173 2.49123C26.986 3.22222 23.6794 5.15205 23.299 5.79532C22.9186 6.38012 21.8066 6.1462 20.7532 5.26901C17.5929 2.63743 12.3842 1 6.12209 0.649123C3.07883 0.473685 2.99104 0.502925 2.78621 1.1462ZM11.3308 3.22222C17.4465 4.62573 20.7824 6.78947 22.4504 10.386C23.6501 13.0175 23.7672 18.6901 22.6259 18.6901C22.0992 18.6901 6.7366 3.51462 6.7366 2.95906C6.7366 2.43275 8.34602 2.52047 11.3308 3.22222ZM39.8028 2.84211C39.8028 3.22222 26.6641 16.2047 26.1667 16.2924C25.4351 16.4678 25.1718 15.8246 25.1718 13.8655C25.1425 12.9006 24.9377 11.5848 24.6743 10.9415C24.4402 10.2982 24.1768 9.30409 24.0891 8.7193C23.9427 7.69591 24.0305 7.57895 25.6107 6.46784C28.5076 4.39181 33.8626 2.69591 37.6959 2.63743C38.8372 2.60819 39.8028 2.72515 39.8028 2.84211ZM12.9109 12.1111C16.9783 16.2339 20.4313 19.7719 20.5776 20.0058C20.958 20.7076 20.5776 20.9708 18.8219 21.2047C15.2519 21.6433 11.5356 20.2982 9.22388 17.7544C7.32184 15.6491 6.18062 12.9591 5.12718 7.95906C4.62973 5.67836 4.65899 4.65497 5.21497 4.65497C5.36128 4.65497 8.81421 8.01754 12.9109 12.1111ZM41.5585 5.67836C41.5585 6.61404 40.7977 9.91813 40.0369 12.2573C38.3105 17.6959 34.8575 20.7368 29.9707 21.1462C27.4249 21.3801 25.9326 21.0585 25.8155 20.2982C25.7277 19.5965 40.7392 4.47953 41.2367 4.77193C41.4122 4.88889 41.5585 5.29825 41.5585 5.67836Z" fill="#FEFEFE"/>
<path d="M3.22504 26.2339C1.96677 26.8479 1.17669 27.6081 0.767025 28.6608C-0.344937 31.4093 0.386617 32.6666 5.30266 36.7017C12.823 42.8128 12.5304 42.6959 22.2454 42.9298L29.4439 43.1052L31.346 44.0409C32.4872 44.5964 33.804 45.5614 34.5355 46.3508C35.6475 47.5497 35.7353 47.7543 35.5597 48.807C35.3549 50.035 35.589 50.6491 36.9643 52.4327C38.9834 54.9766 41.3536 55.883 43.0216 54.7426C44.075 54.0409 50.3956 47.8128 52.2684 45.6491C54.5216 43.0175 54.4631 42.1111 51.6832 39.2163C49.7811 37.228 48.8447 36.731 47.2646 36.9941L45.9185 37.1695L42.7875 34.0994C39.3931 30.7953 37.3447 29.3333 34.8282 28.4561C33.4236 27.9883 32.3409 27.9005 26.6055 27.9005C19.2022 27.9005 18.9681 27.959 17.6805 29.8888L16.9197 31.0584L14.7836 30.9122L12.6767 30.766L9.69198 28.4853C6.9706 26.3801 6.59019 26.1754 5.18561 26.0877C4.36627 26.0584 3.45914 26.1169 3.22504 26.2339ZM5.91716 28.076C6.26831 28.2807 7.52658 29.1871 8.72633 30.152C11.594 32.4327 12.0915 32.6666 14.7543 32.9005C17.0075 33.1052 17.0368 33.1052 17.7391 34.2456C18.9388 36.1462 20.2849 36.5555 24.9083 36.4678C28.1857 36.3801 28.8002 36.2924 29.0928 35.883C29.7073 34.8888 28.8879 34.6257 24.6449 34.4795C22.4503 34.3918 20.4312 34.2163 20.1678 34.0701C19.6704 33.8362 19.0266 32.6666 19.0266 31.9941C19.0266 31 19.7289 30.0935 20.7531 29.8011C21.3383 29.6549 23.533 29.5087 25.6106 29.538C34.3014 29.5672 36.1157 30.2105 41.061 35.035C43.4898 37.4035 44.192 38.2514 44.1335 38.7777C44.0165 39.5964 37.8714 45.883 37.1691 45.883C36.9058 45.883 36.4376 45.5906 36.1157 45.269C34.9452 43.9532 32.7213 42.4035 31.1119 41.7602C29.5902 41.1754 28.6831 41.1169 21.9528 40.9415C15.2518 40.766 14.3447 40.6783 13.1742 40.152C12.0622 39.6257 7.64363 36.2631 4.10291 33.2222C2.11308 31.497 1.82046 30.0058 3.19578 28.6023C4.10291 27.6959 4.92225 27.5497 5.91716 28.076ZM50.5712 40.8245C51.2442 41.5263 51.8002 42.4035 51.8002 42.7543C51.8002 43.1637 50.22 44.9473 46.8842 48.2807C41.1195 54.0409 41.178 54.0117 38.9249 51.6725C38.1055 50.8245 37.4618 49.8596 37.4618 49.538C37.4618 48.9239 46.8256 39.3625 47.7035 39.0701C48.3473 38.8655 49.1666 39.3625 50.5712 40.8245Z" fill="#FEFEFE"/>
</svg>
