<svg width="93" height="60" viewBox="0 0 93 60" preserveAspectRatio="xMidYMid meet" xmlns="http://www.w3.org/2000/svg">
<path d="M34.4263 1.23125C33.8799 2.01356 33.7774 2.8639 33.7774 5.78907C33.7774 8.88431 33.8799 9.56458 34.5629 10.8911C36.0998 13.8163 38.2173 15.3469 42.0766 16.2993C43.8184 16.7414 44.4673 17.0816 44.7747 17.7278C45.7651 19.5986 45.082 24.5986 43.2378 29.2585C42.6913 30.653 42.1107 32.2857 42.0083 32.8979C41.7009 34.2925 41.4277 34.4625 38.4564 35.3809C37.0561 35.8231 34.5971 36.9455 32.9919 37.8639L30.0206 39.5646L26.776 39.1564C25.0001 38.9523 22.2678 38.6802 20.6968 38.5442C17.3157 38.3061 17.1107 37.9659 18.2378 34.8367C18.6476 33.7482 19.0575 32.5578 19.1599 32.2176C19.3648 31.5374 19.8771 31.4013 23.1558 31.1632C28.4837 30.7551 31.899 26.8435 31.899 21.2312C31.899 18.9523 31.3184 18.5442 28.2788 18.8163C25.8539 18.9863 23.873 19.8707 21.858 21.6734C20.2187 23.17 20.082 23 19.843 18.7142C19.6381 14.4285 18.6818 11.9455 16.5301 9.83669C14.8908 8.23805 11.8853 6.80948 10.1777 6.80948C8.7774 6.80948 7.99188 8.54417 7.99188 11.6054C7.99188 14.4625 8.57248 16.5374 9.83614 18.204C10.7583 19.3605 13.4905 20.8911 15.6763 21.4353C18.0329 22.0136 18.067 22.0816 18.0329 25.585C17.9987 28.136 17.8279 29.1904 17.0424 31.1292C16.5643 32.4217 15.8812 34.4965 15.608 35.721C14.8908 38.7823 14.8225 38.8843 12.7391 39.3265C9.52876 39.9727 7.06975 40.8231 3.27876 42.6258C1.05882 43.6802 0.0683817 44.6326 0.375759 45.4489C0.683136 46.2312 1.84434 45.9931 4.74734 44.5986C12.8075 40.7551 18.8184 40.585 14.8225 44.3265C13.149 45.9251 12.7391 47.1836 13.6613 47.8639C14.2419 48.3061 14.4126 48.204 15.5397 46.9115C16.4277 45.8571 16.94 45.551 17.3498 45.687C17.8963 45.8911 17.9304 46.2312 17.7255 48.238C17.5206 50.2789 17.5889 50.585 18.2036 51.1632C19.5014 52.3197 19.9454 51.6734 19.9454 48.5782C19.9454 45.0408 20.287 44.4285 21.2774 46.0272C21.6531 46.6734 21.9946 47.3537 21.9946 47.5578C21.9946 48.102 23.3607 48.9523 23.9072 48.7482C25.4782 48.17 22.6777 42.5238 20.7993 42.5238C20.3894 42.5238 19.2624 41.4693 19.2624 41.0612C19.2624 40.2448 27.7323 41.5034 31.9331 42.8979C33.6408 43.4761 35.246 43.8503 35.5192 43.7482C35.7924 43.6462 35.9973 43.17 35.9973 42.7278C35.9973 42.0476 35.7583 41.8095 34.9044 41.5714C33.3676 41.1972 33.4017 40.2108 35.0069 39.2925C35.69 38.9183 37.3293 38.238 38.6613 37.7959C40.9495 36.9795 41.1203 36.9795 41.7351 37.5238C42.0766 37.8639 42.5889 38.7482 42.8279 39.4965C43.3061 40.8911 43.3061 40.8911 42.0766 41.9455C40.6763 43.17 39.9591 44.3945 40.2323 45.1088C40.5738 45.9591 41.7009 45.619 42.7255 44.3265C43.4427 43.4761 43.9208 43.17 44.3307 43.3061C44.8088 43.4761 44.843 43.8843 44.6722 45.8231C44.4673 47.9999 44.5014 48.204 45.3211 48.9183L46.1749 49.7006L46.6531 49.0204C46.9946 48.5442 47.1312 47.7619 47.0288 46.6734C46.9263 45.551 47.0288 44.8707 47.4386 44.3945C47.9851 43.7142 47.9851 43.7142 48.3949 44.3605C49.6585 46.3673 51.0247 46.9795 51.5028 45.7551C51.7077 45.1768 50.2733 41.8095 49.5561 41.2312C49.2829 40.9931 48.1217 40.3469 46.9605 39.7687C44.8088 38.6802 43.9891 37.4897 44.843 36.6394C45.4577 36.0272 52.1517 36.1972 55.3621 36.9115C60.0411 37.9319 65.9154 40.653 65.6422 41.6054C65.5397 41.8435 65.0616 42.2517 64.481 42.5238C61.9878 43.8163 61.2706 44.3945 61.2706 45.1088C61.2706 46.3333 62.1927 46.3333 64.6859 45.0748C66.94 43.9523 68.4427 43.5782 68.4427 44.1224C68.4427 44.2925 68.1353 44.9047 67.7596 45.517C66.94 46.8435 66.9058 47.3877 67.623 47.9999C68.1012 48.4081 68.3402 48.3061 69.2624 47.1836C69.9113 46.4013 70.6285 45.9251 71.1066 45.9251C71.8922 45.9251 71.8922 45.9931 71.6872 48.068C71.4823 49.8707 71.5506 50.3129 72.1312 50.9931C73.2241 52.3877 73.7706 51.7414 74.0096 48.8163C74.1121 47.3537 74.3512 46.0272 74.5219 45.8571C74.761 45.619 75.205 46.0612 75.7856 47.0816C76.4687 48.2721 76.9126 48.6462 77.5274 48.6462C78.7911 48.6462 78.8594 47.8639 77.7323 45.517C76.6053 43.17 76.7419 42.5238 78.3129 42.5238C80.1913 42.5238 85.5534 43.8503 88.4222 45.0408C90.7105 45.9591 91.5643 46.1632 92.0424 45.8911C93.4427 45.1768 92.3157 43.9863 89.0711 42.7619C84.3239 40.9591 81.9331 40.4829 76.8785 40.4829C72.302 40.4829 72.1654 40.4489 71.8239 39.7006C71.3457 38.6462 71.8922 35.653 72.9509 33.4421L73.7364 31.8095L75.9564 31.5374C82.1381 30.8231 85.1094 28.17 85.7241 22.8639C86.0657 19.8367 85.4851 19.0544 82.9577 19.0544C80.7719 19.0544 78.0739 20.1428 76.2296 21.7414C74.2487 23.4761 73.9072 23.136 73.9072 19.4625C73.9072 15.3129 72.3703 11.5374 70.0137 9.73465C67.5889 7.89791 64.6176 7.01356 63.4222 7.76186C62.705 8.20404 62.2952 9.8707 62.2952 12.2517C62.2952 16.7074 64.3102 19.9727 67.7938 21.1972C68.6135 21.4693 69.9113 21.9115 70.6626 22.1836L72.0288 22.6598L71.9946 26.0612C71.9605 29.1224 71.858 29.7006 70.6626 32.6598C69.6722 35.1428 69.3648 36.4013 69.3307 38.068C69.2965 40.687 68.9208 40.9251 67.1449 39.5306C65.3689 38.136 62.5342 36.6394 59.5971 35.585C56.5916 34.4965 49.4195 33.5442 46.5848 33.8843C44.7747 34.0884 44.6039 34.0204 44.399 33.4081C44.1258 32.5238 45.97 28.4081 46.858 27.9659C47.1654 27.7959 48.429 27.5578 49.6585 27.4557C54.3717 27.0476 56.9673 25.517 58.8116 22.1496C59.9045 20.2108 60.0069 19.7346 60.0411 17.1156C60.0752 14.9387 59.9386 14.1904 59.5629 13.9183C59.2897 13.7483 57.8894 13.6462 56.4892 13.7142C53.6203 13.8503 51.8102 14.5986 49.6927 16.5034C47.2678 18.6802 46.5848 17.9319 46.5848 13.17C46.5848 8.54417 45.4236 5.51696 42.6913 3.13601C40.8812 1.57138 38.9004 0.653015 36.8512 0.448934C35.1435 0.278866 35.0069 0.312879 34.4263 1.23125ZM39.5493 3.74825C41.6667 5.1088 42.6572 6.26526 43.4769 8.34009C44.7405 11.6734 44.7747 14.2925 43.5793 14.2925C40.8129 14.2925 36.6463 11.0952 36.2364 8.68023C35.929 6.97955 35.929 3.98635 36.2023 3.27206C36.5096 2.45574 37.7391 2.6258 39.5493 3.74825ZM13.0807 10.0408C15.4714 11.2653 17.7938 15.4149 17.4864 17.9319C17.4181 18.7142 17.2132 18.9183 16.2911 18.9863C14.8908 19.1224 12.705 18 11.5779 16.5374C10.7241 15.4149 9.90445 12.1156 10.2118 11.0612C10.3143 10.7891 10.4509 10.3129 10.5534 10.0408C10.7583 9.39451 11.8512 9.39451 13.0807 10.0408ZM67.0083 10.517C69.7064 11.9115 71.2774 14.4285 71.3116 17.5238C71.3457 20.0068 70.9359 20.2108 68.3061 18.9183C65.7446 17.6598 64.9591 16.4353 64.7542 13.4081C64.5151 9.70063 64.7542 9.3605 67.0083 10.517ZM57.8553 17.4217C57.8211 20.4489 55.5329 23.5102 52.4932 24.5986C50.649 25.2448 47.7801 25.3809 47.4386 24.8027C47.0288 24.1904 49.1804 20.3129 50.7514 18.8163C52.6982 16.9455 54.6107 15.9932 56.3867 15.9932H57.8553V17.4217ZM29.44 22.0136C29.6449 23.4421 28.7911 25.551 27.4932 26.8435C25.9222 28.4081 22.0629 29.6666 21.1408 28.9183C20.4577 28.3741 20.4919 27.9659 21.3457 26.3673C22.9167 23.3741 25.9905 21.0612 28.1422 21.1972C29.0643 21.2312 29.3717 21.4353 29.44 22.0136ZM83.47 22.7278C83.4359 24.0204 82.3771 26.1972 81.2159 27.2857C80.0547 28.3741 77.7323 29.2585 76.093 29.2585C75.1025 29.2585 74.9318 29.1564 74.9318 28.4421C74.9318 26.9795 75.5807 25.8571 77.4249 24.0204C80.2938 21.1632 83.47 20.4829 83.47 22.7278Z" fill="#FEFEFE"/>
<path d="M17.0424 55.619C12.3976 56.6054 10.0411 57.9319 10.7241 59.1904C11.2023 60.0408 11.4413 60.0408 13.9345 59.0544C18.6476 57.1836 22.5752 57.1836 26.7419 59.0544C28.7228 59.9387 29.8498 59.8707 29.8498 58.8843C29.8498 57.5918 27.4932 56.4013 23.3607 55.585C20.3894 55.0408 19.8088 55.0408 17.0424 55.619Z" fill="#FEFEFE"/>
<path d="M46.653 55.653C43.6817 56.2993 40.6079 57.8299 40.6079 58.6462C40.6079 59.9047 41.5983 60.0748 43.7158 59.0884C47.9508 57.2177 52.0833 57.2177 56.6598 59.0204C58.7773 59.8707 58.9822 59.9047 59.4945 59.3945C60.6899 58.204 58.8456 56.9455 54.2691 55.7891C51.127 55.0068 49.6585 54.9728 46.653 55.653Z" fill="#FEFEFE"/>
<path d="M75.6148 55.619C70.9359 56.6734 68.9208 57.7618 69.1941 59.0884C69.3648 60.0067 70.3553 60.0067 72.5069 59.0544C76.6736 57.2176 80.4987 57.1836 85.4167 59.0544C87.3635 59.7686 87.6025 59.8027 88.0807 59.2924C89.3443 58.0339 86.8853 56.6054 81.7624 55.619C78.8252 55.0407 78.2105 55.0407 75.6148 55.619Z" fill="#FEFEFE"/>
</svg>
