<svg width="116" height="58" viewBox="0 0 116 58" preserveAspectRatio="xMidYMid meet" xmlns="http://www.w3.org/2000/svg">
<path d="M3.85196 0.518469C3.55449 0.62958 3.18265 0.925876 3.03392 1.1481C2.58771 1.81476 2.66208 36.4814 3.10828 37.3333C3.48012 38.037 4.2238 38.037 34.7147 38.037H65.9121L66.4698 37.2222C66.9904 36.4814 67.0648 34.1481 67.0648 18.8888C67.0648 3.51847 66.9904 1.37032 66.4698 0.851802C65.9493 0.333283 62.6399 0.259209 35.1609 0.296246C18.2422 0.296246 4.14944 0.407357 3.85196 0.518469ZM64.1272 3.22217C64.9825 3.70365 65.0568 4.81476 64.2388 5.59254C63.7182 6.11106 60.5204 6.18514 34.6775 6.18514H5.71116L5.26496 5.22217C4.85593 4.37032 4.89312 4.1481 5.67398 3.55551C6.49203 2.88884 7.68192 2.8518 34.975 2.8518C53.8645 2.8518 63.6439 2.96291 64.1272 3.22217ZM64.0529 8.92588C64.3503 9.25921 64.4619 12.3703 64.3875 19.5555L64.276 29.7037L50.4435 29.8148L36.5739 29.8888V28.4074C36.5739 26.7407 36.4252 26.7777 40.2179 26.9259C43.0811 27 43.862 26.7407 45.9814 24.7407C47.3201 23.5185 49.2908 19.7037 49.1421 18.6666C48.7331 15.7407 41.6681 16.7037 38.5446 20.074C37.6522 21.037 36.797 21.7037 36.5739 21.5555C36.388 21.4444 36.2021 20.5925 36.2021 19.6666C36.2021 16.3333 33.7479 13.1111 29.6948 11.1481C27.7241 10.1851 27.6497 10.1481 26.906 10.8148C26.2739 11.3703 26.1624 11.9629 26.1624 14.1851C26.1624 18.9629 27.9844 21.6296 32.2234 23.1481C34.0454 23.7777 34.6775 24.2222 34.8262 24.8148C35.0493 25.7407 34.6403 28.7407 34.1941 29.4444C34.0082 29.7777 30.4385 29.8888 19.618 29.8888H5.33932V19.7407C5.33932 11.1111 5.41369 9.48143 5.89708 8.99995C6.41766 8.51847 9.91296 8.44439 35.0493 8.40736C58.8471 8.40736 63.681 8.48143 64.0529 8.92588ZM30.0295 13.4444C30.1411 13.7407 30.0667 14.3703 29.8436 14.7777C29.5089 15.3703 29.5833 15.7407 30.1411 16.5185C30.5501 17.037 31.1822 18.037 31.5169 18.7037C32.0003 19.5925 32.3349 19.8518 32.8183 19.7037C33.562 19.4814 34.5288 20.3703 34.1569 21C33.5248 22.037 29.8064 20.3333 29.0255 18.6296C28.3562 17.2222 27.91 14.2962 28.2447 13.4814C28.5421 12.7037 29.732 12.6666 30.0295 13.4444ZM46.6136 20.037C46.6136 21 45.3121 22.8518 43.8248 24C42.5977 24.9629 39.4742 25.4074 38.619 24.7037C37.8753 24.074 38.2472 23.5925 39.4742 23.5925C40.6641 23.5925 44.0107 21.5185 44.5685 20.4444C45.275 19.037 45.5352 18.8148 46.0558 19.037C46.3533 19.1481 46.6136 19.5925 46.6136 20.037ZM64.7222 33.1111C64.8337 33.4444 64.7222 34.1481 64.4247 34.6666L63.867 35.6296L35.5699 35.7407C17.7216 35.7777 6.90105 35.7037 6.30611 35.4444C5.56243 35.1851 5.33932 34.8148 5.33932 34.037C5.33932 33.4444 5.45088 32.8518 5.59961 32.7407C5.71116 32.5925 19.023 32.4814 35.1609 32.4814C62.1193 32.4814 64.4991 32.5185 64.7222 33.1111Z" fill="#FEFEFE"/>
<path d="M75.8032 9.88885L69.8538 10.074L69.5935 11.7407C69.4819 12.6666 69.4447 19.3333 69.5563 26.5926C69.705 38.7037 69.6678 39.8148 69.0729 40.2963C68.5523 40.7407 66.061 40.8148 54.1621 40.7407C45.8329 40.6666 39.5488 40.7777 38.991 41C37.8383 41.4444 37.8383 41.8889 39.0282 44.4444C39.6232 45.7777 40.0322 47.5185 40.1809 49.2222C40.2925 50.7037 40.59 52.037 40.8131 52.1851C41.0362 52.3333 49.2166 52.4814 58.996 52.4814H76.7328L77.1046 51.5185C77.3277 51 77.4765 49.7407 77.4765 48.7407C77.4765 44.4444 81.2693 39.8148 85.8057 38.5926C87.888 38.037 88.5573 38 90.5653 38.3703C93.3169 38.9259 95.5851 40.1111 96.9981 41.8148C98.5226 43.5926 99.7869 46.5185 99.7869 48.2222C99.7869 50.4814 100.122 51.2592 101.311 51.7407C102.799 52.3703 111.128 52.074 112.615 51.3703C114.921 50.2222 116.111 46.9629 114.846 45.2963C114.4 44.7037 114.289 43.2963 114.289 38.8889C114.289 34.6666 114.14 32.8148 113.694 31.4814C112.987 29.4814 108.934 23.9259 105.364 20.1111C97.8533 12.1111 92.3129 9.3333 84.2812 9.59256C82.9054 9.62959 79.0754 9.77774 75.8032 9.88885ZM92.3873 13.1851C95.5479 14.4074 97.7418 16 101.869 20.074C107.261 25.4444 111.983 32 111.463 33.4074C111.24 33.9259 110.979 34.037 108.971 34.4814C107.707 34.7777 107.224 35.8889 107.224 38.6296C107.224 40.8148 108.042 42.1111 109.492 42.1111C110.533 42.1111 111.76 42.8148 111.5 43.2592C111.351 43.4444 110.793 43.5926 110.236 43.5926C109.641 43.5926 108.785 43.9259 108.302 44.2963C107.075 45.2963 107.781 45.9259 110.459 46.1851C113.062 46.4074 113.768 47.2222 112.504 48.4814C111.76 49.2592 111.24 49.3333 107.41 49.4814C102.539 49.6296 102.018 49.4074 102.018 47.3333C102.018 45.8518 100.605 42.5926 99.1548 40.7037C97.9649 39.1111 94.9902 37.2222 92.3873 36.3703C89.6728 35.4814 85.4339 35.7407 82.8682 36.9629C80.5256 38.037 77.4765 41.074 76.3981 43.4444C75.9148 44.4444 75.3942 46.1481 75.2454 47.2222C75.0967 48.2963 74.8364 49.3333 74.6505 49.5185C74.3902 49.7777 68.3664 49.8518 58.5126 49.8148L42.7094 49.7037L42.3748 47.8518C42.226 46.8148 42.0401 45.4074 42.0029 44.7037L41.9658 43.4074L56.0957 43.2222C63.8671 43.1111 70.4859 42.8889 70.8205 42.7407C71.1552 42.5555 71.5642 41.9259 71.6758 41.2963C71.7873 40.6666 71.8989 34 71.8989 26.4814V12.8148L72.7541 12.4814C73.2375 12.2592 77.0675 12.1481 81.9386 12.2222C89.4497 12.3703 90.5281 12.4444 92.3873 13.1851ZM111.872 37.6666C112.244 38.8889 111.723 39.9629 110.831 39.8148C110.012 39.7037 109.566 38.5185 109.975 37.4444C110.273 36.6666 111.611 36.8148 111.872 37.6666Z" fill="#FEFEFE"/>
<path d="M76.361 15.8888L75.4314 16.4074V22.4444C75.4314 28.037 75.4686 28.5185 76.1751 29C76.8072 29.4814 78.6292 29.5555 87.5162 29.4814C99.3779 29.4074 100.419 29.3333 100.642 28.4444C101.088 26.4074 95.0646 19.3333 90.6397 16.7407C88.892 15.7407 88.5945 15.6666 83.0541 15.5555C78.7408 15.4444 77.0675 15.5185 76.361 15.8888ZM90.1191 19.1481C93.0566 21 97.1469 25.7037 96.6263 26.5555C96.4775 26.7777 93.2425 26.9259 87.3303 26.9259C79.0382 26.9259 78.2202 26.8518 77.9227 26.2592C77.5137 25.5185 77.5881 19.1481 77.9971 18.4814C78.183 18.1851 79.7819 18.037 83.3144 18.037C88.3342 18.037 88.4086 18.037 90.1191 19.1481Z" fill="#FEFEFE"/>
<path d="M1.10045 41.1111C0.282401 41.7037 0.133665 45.8518 0.914529 46.7777C1.212 47.1481 2.73655 48.5555 4.33546 49.9629L7.19863 52.4814H11.9582C15.156 52.4814 16.8665 52.3333 17.1639 52.037C17.4242 51.7777 17.6101 50.8148 17.6101 49.8889C17.6101 48.2963 18.2051 46.074 19.5065 42.9629C19.8784 42 19.8784 41.7037 19.5065 41.2222C19.0603 40.7037 17.7961 40.6296 10.3965 40.6296C3.96362 40.6296 1.58384 40.7407 1.10045 41.1111ZM15.8997 44.7037C15.8625 46.2963 15.1932 49.4444 14.8213 49.8148C14.4867 50.1481 9.54122 50.1481 8.31415 49.8148C7.79357 49.6666 6.30621 48.5555 5.00477 47.3703C2.88528 45.4814 2.66218 45.1111 2.88528 44.2222L3.10839 43.2222L9.54122 43.2963L15.9369 43.4074L15.8997 44.7037Z" fill="#FEFEFE"/>
<path d="M26.3856 41.1852C24.3033 41.7778 22.3697 43.4444 21.2542 45.6296C20.2874 47.5185 20.1758 51.4074 21.1055 53.1111C23.1506 57.1111 28.5051 59.1111 32.2978 57.2963C34.2314 56.3704 34.7148 55.963 36.1278 54C37.2061 52.5185 37.3177 52.1111 37.3177 49.6296C37.3177 47.6667 37.1318 46.5185 36.6112 45.4815C34.752 41.9259 30.3643 40.0741 26.3856 41.1852ZM32.6697 44.4815C34.5661 45.9259 35.1982 47.3704 35.0123 49.8889C34.8264 52.2963 34.0455 53.5556 31.9632 54.7407C27.7986 57.1111 22.8159 54.1852 22.8159 49.3333C22.8159 44.4074 28.7282 41.4815 32.6697 44.4815Z" fill="#FEFEFE"/>
<path d="M85.9914 41.2222C80.2279 42.963 78.1828 50.963 82.3474 55.1111C86.0658 58.8148 91.569 58.9259 94.8041 55.3704C96.5517 53.4444 97.1838 51.8518 97.1838 49.4074C97.1838 45.4815 94.6181 42.1852 90.751 41.1481C88.4084 40.5185 88.1853 40.5185 85.9914 41.2222ZM91.6062 44.037C93.4654 45 94.9528 47.3333 94.9528 49.3704C94.9528 53.3704 90.9369 56.4444 87.0698 55.4074C83.9463 54.5926 81.7153 50.7407 82.6821 47.8889C84.0207 43.8518 87.8878 42.1852 91.6062 44.037Z" fill="#FEFEFE"/>
</svg>
