<svg width="76" height="67" viewBox="0 0 76 67" fill="none" xmlns="http://www.w3.org/2000/svg">
<path d="M68.875 33.5H57V23.9286C57 18.6493 61.2602 14.3571 66.5 14.3571H67.6875C69.6617 14.3571 71.25 12.7569 71.25 10.7679V3.58929C71.25 1.60022 69.6617 0 67.6875 0H66.5C53.3781 0 42.75 10.708 42.75 23.9286V59.8214C42.75 63.7846 45.9414 67 49.875 67H68.875C72.8086 67 76 63.7846 76 59.8214V40.6786C76 36.7154 72.8086 33.5 68.875 33.5ZM26.125 33.5H14.25V23.9286C14.25 18.6493 18.5102 14.3571 23.75 14.3571H24.9375C26.9117 14.3571 28.5 12.7569 28.5 10.7679V3.58929C28.5 1.60022 26.9117 0 24.9375 0H23.75C10.6281 0 0 10.708 0 23.9286V59.8214C0 63.7846 3.19141 67 7.125 67H26.125C30.0586 67 33.25 63.7846 33.25 59.8214V40.6786C33.25 36.7154 30.0586 33.5 26.125 33.5Z" fill="#F7F7F3"/>
</svg>
